<?xml version="1.0" encoding="UTF-8" standalone="no"?>
<svg xmlns:xlink="http://www.w3.org/1999/xlink" height="877.95px" width="709.8px" xmlns="http://www.w3.org/2000/svg">
  <g transform="matrix(3.0, 0.0, 0.0, 3.0, -222.0, -327.3)">
    <path d="M78.3 145.8 L183.55 277.45 195.95 292.95 258.4 341.95 291.05 383.25 302.25 397.45 298.7 399.95 305.0 401.05 309.0 401.75 310.6 391.65 307.1 394.05 300.9 386.35 262.55 338.6 239.5 288.75 228.6 265.15 114.65 121.3 113.35 119.6 78.3 145.8" fill="#993a20" fill-rule="evenodd" stroke="none">
      <animate attributeName="fill" dur="2s" repeatCount="indefinite" values="#993a20;#993a21"/>
      <animate attributeName="fill-opacity" dur="2s" repeatCount="indefinite" values="1.0;1.0"/>
      <animate attributeName="d" dur="2s" repeatCount="indefinite" values="M78.3 145.8 L183.55 277.45 195.95 292.95 258.4 341.95 291.05 383.25 302.25 397.45 298.7 399.95 305.0 401.05 309.0 401.75 310.6 391.65 307.1 394.05 300.9 386.35 262.55 338.6 239.5 288.75 228.6 265.15 114.65 121.3 113.35 119.6 78.3 145.8;M74.0 140.4 L174.85 268.75 186.7 283.85 234.2 344.35 265.7 384.45 283.25 384.6 287.45 384.6 293.65 384.6 294.55 380.8 296.8 371.1 297.7 367.1 299.9 357.75 263.4 310.95 230.6 269.05 215.1 249.15 105.65 109.1 104.15 110.6 74.0 140.4"/>
    </path>
    <path d="M78.3 145.8 L113.35 119.6 114.65 121.3 228.6 265.15 239.5 288.75 262.55 338.6 300.9 386.35 307.1 394.05 310.6 391.65 309.0 401.75 305.0 401.05 298.7 399.95 302.25 397.45 291.05 383.25 258.4 341.95 195.95 292.95 183.55 277.45 78.3 145.8" fill="none" stroke="#000000" stroke-linecap="round" stroke-linejoin="round" stroke-opacity="0.0" stroke-width="1.0">
      <animate attributeName="stroke" dur="2s" repeatCount="indefinite" values="#000000;#000001"/>
      <animate attributeName="stroke-width" dur="2s" repeatCount="indefinite" values="0.0;0.0"/>
      <animate attributeName="fill-opacity" dur="2s" repeatCount="indefinite" values="0.0;0.0"/>
      <animate attributeName="d" dur="2s" repeatCount="indefinite" values="M78.3 145.8 L113.35 119.6 114.65 121.3 228.6 265.15 239.5 288.75 262.55 338.6 300.9 386.35 307.1 394.05 310.6 391.65 309.0 401.75 305.0 401.05 298.7 399.95 302.25 397.45 291.05 383.25 258.4 341.95 195.95 292.95 183.55 277.45 78.3 145.8;M74.0 140.4 L104.15 110.6 105.65 109.1 215.1 249.15 230.6 269.05 263.4 310.95 299.9 357.75 297.7 367.1 296.8 371.1 294.55 380.8 293.65 384.6 287.45 384.6 283.25 384.6 265.7 384.45 234.2 344.35 186.7 283.85 174.85 268.75 74.0 140.4"/>
    </path>
  </g>
</svg>
