<?xml version="1.0" encoding="UTF-8" standalone="no"?>
<svg xmlns:xlink="http://www.w3.org/1999/xlink" height="81.3px" width="42.6px" xmlns="http://www.w3.org/2000/svg">
  <g transform="matrix(3.0, 0.0, 0.0, 3.0, -727.95, -1358.25)">
    <path d="M242.65 467.85 L244.8 467.95 245.6 469.9 Q246.4 471.85 251.65 476.25 L251.75 476.35 252.7 477.0 Q253.7 477.65 253.4 479.6 L254.25 479.85 254.3 479.8 Q254.45 477.15 256.7 475.65 L256.7 475.6 Q257.0 475.3 256.75 475.2 L256.65 475.15 256.55 475.15 254.0 475.85 252.1 474.1 251.7 473.35 Q250.75 471.85 250.6 469.95 L251.0 462.55 251.0 462.45 Q252.55 464.25 252.1 462.95 L251.6 461.4 250.9 457.85 250.85 457.8 251.6 456.3 252.4 454.8 Q253.1 453.8 253.05 453.45 L252.95 452.95 Q251.95 452.35 250.75 453.75 L250.7 453.8 Q248.5 453.6 247.0 455.95 L246.95 456.05 246.55 456.75 246.5 456.8 245.9 457.85 245.85 457.95 245.45 458.65 245.4 458.75 Q244.55 461.55 244.8 464.15 244.75 465.5 243.7 465.95 L243.5 466.15 243.3 466.4 243.05 466.8 242.75 467.45 242.65 467.85" fill="#333333" fill-rule="evenodd" stroke="none">
      <animate attributeName="fill" dur="2s" repeatCount="indefinite" values="#333333;#333334"/>
      <animate attributeName="fill-opacity" dur="2s" repeatCount="indefinite" values="1.0;0.0"/>
      <animate attributeName="d" dur="2s" repeatCount="indefinite" values="M242.65 467.85 L244.8 467.95 245.6 469.9 Q246.4 471.85 251.65 476.25 L251.75 476.35 252.7 477.0 Q253.7 477.65 253.4 479.6 L254.25 479.85 254.3 479.8 Q254.45 477.15 256.7 475.65 L256.7 475.6 Q257.0 475.3 256.75 475.2 L256.65 475.15 256.55 475.15 254.0 475.85 252.1 474.1 251.7 473.35 Q250.75 471.85 250.6 469.95 L251.0 462.55 251.0 462.45 Q252.55 464.25 252.1 462.95 L251.6 461.4 250.9 457.85 250.85 457.8 251.6 456.3 252.4 454.8 Q253.1 453.8 253.05 453.45 L252.95 452.95 Q251.95 452.35 250.75 453.75 L250.7 453.8 Q248.5 453.6 247.0 455.95 L246.95 456.05 246.55 456.75 246.5 456.8 245.9 457.85 245.85 457.95 245.45 458.65 245.4 458.75 Q244.55 461.55 244.8 464.15 244.75 465.5 243.7 465.95 L243.5 466.15 243.3 466.4 243.05 466.8 242.75 467.45 242.65 467.85;M242.65 467.85 L244.8 467.95 245.6 469.9 Q246.4 471.85 251.65 476.25 L251.75 476.35 252.7 477.0 Q253.7 477.65 253.4 479.6 L254.25 479.85 254.3 479.8 Q254.45 477.15 256.7 475.65 L256.7 475.6 Q257.0 475.3 256.75 475.2 L256.65 475.15 256.55 475.15 254.0 475.85 252.1 474.1 251.7 473.35 Q250.75 471.85 250.6 469.95 L251.0 462.55 251.0 462.45 Q252.55 464.25 252.1 462.95 L251.6 461.4 250.9 457.85 250.85 457.8 251.6 456.3 252.4 454.8 Q253.1 453.8 253.05 453.45 L252.95 452.95 Q251.95 452.35 250.75 453.75 L250.7 453.8 Q248.5 453.6 247.0 455.95 L246.95 456.05 246.55 456.75 246.5 456.8 245.9 457.85 245.85 457.95 245.45 458.65 245.4 458.75 Q244.55 461.55 244.8 464.15 244.75 465.5 243.7 465.95 L243.5 466.15 243.3 466.4 243.05 466.8 242.75 467.45 242.65 467.85"/>
    </path>
    <path d="M242.65 467.85 L242.75 467.45 243.05 466.8 243.3 466.4 243.5 466.15 243.7 465.95 Q244.75 465.5 244.8 464.15 244.55 461.55 245.4 458.75 L245.45 458.65 245.85 457.95 245.9 457.85 246.5 456.8 246.55 456.75 246.95 456.05 247.0 455.95 Q248.5 453.6 250.7 453.8 L250.75 453.75 Q251.95 452.35 252.95 452.95 L253.05 453.45 Q253.1 453.8 252.4 454.8 L251.6 456.3 250.85 457.8 250.9 457.85 251.6 461.4 252.1 462.95 Q252.55 464.25 251.0 462.45 L251.0 462.55 250.6 469.95 Q250.75 471.85 251.7 473.35 L252.1 474.1 254.0 475.85 256.55 475.15 256.65 475.15 256.75 475.2 Q257.0 475.3 256.7 475.6 L256.7 475.65 Q254.45 477.15 254.3 479.8 L254.25 479.85 253.4 479.6 Q253.7 477.65 252.7 477.0 L251.75 476.35 251.65 476.25 Q246.4 471.85 245.6 469.9 L244.8 467.95 242.65 467.85" fill="none" stroke="#000000" stroke-linecap="round" stroke-linejoin="round" stroke-opacity="0.0" stroke-width="1.0">
      <animate attributeName="stroke" dur="2s" repeatCount="indefinite" values="#000000;#000001"/>
      <animate attributeName="stroke-width" dur="2s" repeatCount="indefinite" values="0.0;0.0"/>
      <animate attributeName="fill-opacity" dur="2s" repeatCount="indefinite" values="0.0;0.0"/>
      <animate attributeName="d" dur="2s" repeatCount="indefinite" values="M242.65 467.85 L242.75 467.45 243.05 466.8 243.3 466.4 243.5 466.15 243.7 465.95 Q244.75 465.5 244.8 464.15 244.55 461.55 245.4 458.75 L245.45 458.65 245.85 457.95 245.9 457.85 246.5 456.8 246.55 456.75 246.95 456.05 247.0 455.95 Q248.5 453.6 250.7 453.8 L250.75 453.75 Q251.95 452.35 252.95 452.95 L253.05 453.45 Q253.1 453.8 252.4 454.8 L251.6 456.3 250.85 457.8 250.9 457.85 251.6 461.4 252.1 462.95 Q252.55 464.25 251.0 462.45 L251.0 462.55 250.6 469.95 Q250.75 471.85 251.7 473.35 L252.1 474.1 254.0 475.85 256.55 475.15 256.65 475.15 256.75 475.2 Q257.0 475.3 256.7 475.6 L256.7 475.65 Q254.45 477.15 254.3 479.8 L254.25 479.85 253.4 479.6 Q253.7 477.65 252.7 477.0 L251.75 476.35 251.65 476.25 Q246.4 471.85 245.6 469.9 L244.8 467.95 242.65 467.85;M242.65 467.85 L242.75 467.45 243.05 466.8 243.3 466.4 243.5 466.15 243.7 465.95 Q244.75 465.5 244.8 464.15 244.55 461.55 245.4 458.75 L245.45 458.65 245.85 457.95 245.9 457.85 246.5 456.8 246.55 456.75 246.95 456.05 247.0 455.95 Q248.5 453.6 250.7 453.8 L250.75 453.75 Q251.95 452.35 252.95 452.95 L253.05 453.45 Q253.1 453.8 252.4 454.8 L251.6 456.3 250.85 457.8 250.9 457.85 251.6 461.4 252.1 462.95 Q252.55 464.25 251.0 462.45 L251.0 462.55 250.6 469.95 Q250.75 471.85 251.7 473.35 L252.1 474.1 254.0 475.85 256.55 475.15 256.65 475.15 256.75 475.2 Q257.0 475.3 256.7 475.6 L256.7 475.65 Q254.45 477.15 254.3 479.8 L254.25 479.85 253.4 479.6 Q253.7 477.65 252.7 477.0 L251.75 476.35 251.65 476.25 Q246.4 471.85 245.6 469.9 L244.8 467.95 242.65 467.85"/>
    </path>
  </g>
</svg>
