<?xml version="1.0" encoding="UTF-8" standalone="no"?>
<svg xmlns:xlink="http://www.w3.org/1999/xlink" height="66.15px" width="92.4px" xmlns="http://www.w3.org/2000/svg">
  <g transform="matrix(3.0, 0.0, 0.0, 3.0, -1256.55, -1048.35)">
    <path d="M418.85 358.5 L418.95 358.75 419.2 358.65 419.35 358.9 419.6 358.8 419.7 359.05 419.95 358.9 420.05 359.15 420.3 359.05 420.4 359.3 420.65 359.2 420.75 359.45 421.0 359.35 420.85 359.7 420.3 359.6 420.15 359.4 419.65 359.65 419.75 359.9 420.0 359.8 420.1 360.05 420.35 359.9 420.45 360.15 420.95 359.95 421.05 360.2 421.5 360.0 421.65 360.4 421.55 360.6 421.5 360.85 421.15 361.0 421.25 361.25 422.2 360.85 422.25 360.6 422.6 360.35 422.55 360.2 423.15 359.6 423.25 360.05 423.1 360.15 423.1 360.4 422.95 360.5 423.0 360.75 422.8 360.85 422.85 361.1 422.65 361.25 422.7 361.45 422.5 361.6 422.55 361.8 422.4 361.95 422.4 362.15 422.3 362.3 422.25 362.55 422.15 362.65 422.55 363.65 422.8 363.55 422.95 363.8 423.15 363.7 423.25 363.9 425.0 362.6 425.25 363.05 425.5 362.95 425.6 363.2 426.1 362.95 426.4 363.4 426.65 363.0 426.85 363.5 427.35 363.3 427.55 363.8 427.8 363.7 427.6 362.4 427.8 362.2 427.55 361.9 Q427.85 361.75 428.1 361.55 L428.2 361.75 428.7 361.55 428.8 361.8 429.05 361.7 429.15 361.95 429.65 361.7 429.75 361.95 429.95 361.85 430.05 362.1 430.3 362.0 430.4 362.25 430.65 362.15 430.75 362.4 431.0 362.3 431.25 362.8 431.5 362.7 431.6 362.95 431.85 362.85 432.05 363.35 432.35 363.35 432.15 363.6 432.75 365.0 432.55 365.15 432.7 365.6 432.5 365.75 432.75 366.45 432.6 366.6 432.95 367.55 432.75 367.65 432.9 368.15 432.75 368.25 432.85 368.75 432.75 368.85 432.7 369.1 432.6 369.25 432.6 369.45 432.45 369.6 432.4 369.9 432.05 370.05 432.2 370.55 432.05 370.65 432.05 370.85 431.9 371.0 432.1 371.5 433.5 370.6 433.35 370.15 433.5 370.0 433.4 369.55 434.0 369.2 433.75 368.45 433.95 368.35 433.8 367.9 434.0 367.75 433.75 367.05 433.9 366.95 433.9 366.7 434.05 366.55 433.9 366.1 434.1 365.95 433.95 365.5 434.1 365.35 433.8 363.8 Q434.15 363.65 434.45 363.45 L434.75 364.2 435.0 364.05 435.65 365.55 435.9 365.45 436.55 367.15 436.4 367.25 436.55 367.75 436.35 367.9 436.4 368.1 436.25 368.25 436.2 368.55 435.85 368.7 435.85 368.95 435.75 369.05 435.85 369.5 435.45 369.75 435.55 370.0 436.8 369.5 436.9 369.7 437.1 369.6 437.1 369.4 437.25 369.25 437.25 369.05 437.4 368.9 437.3 368.45 437.95 368.1 435.5 361.6 435.65 361.5 435.6 361.25 435.8 361.1 435.85 360.8 436.05 361.0 438.4 359.7 438.45 359.4 438.8 359.25 438.85 359.0 439.9 358.45 440.15 358.95 440.35 358.85 440.45 359.1 440.7 359.0 440.9 359.5 441.15 359.4 441.35 359.9 441.6 359.8 441.85 360.25 442.1 360.1 442.75 361.85 442.6 362.0 442.7 362.4 442.55 362.6 442.7 363.0 442.5 363.2 442.65 363.6 442.45 363.75 442.5 363.95 442.4 364.1 442.35 364.35 442.25 364.45 442.2 364.7 442.1 364.8 442.05 365.05 441.95 365.15 442.0 365.4 441.8 365.55 441.75 365.85 441.4 366.0 441.35 366.3 440.75 366.55 440.8 366.8 440.65 366.9 440.65 367.1 440.5 367.3 440.5 367.45 440.35 367.65 440.45 367.9 442.45 367.05 442.5 366.7 442.85 366.55 442.85 366.25 443.7 365.75 443.65 364.8 443.75 364.7 443.6 364.2 443.8 364.05 443.65 363.65 443.85 363.45 443.8 363.3 443.95 363.1 443.85 362.7 444.0 362.55 444.0 362.3 444.15 362.2 444.0 361.7 444.2 361.6 444.15 361.35 444.35 361.25 444.2 360.75 444.35 360.6 444.35 360.4 444.5 360.25 444.35 359.8 444.5 359.65 444.5 359.5 444.65 359.3 444.7 359.05 445.05 358.85 445.15 359.1 445.4 359.0 445.5 359.25 445.75 359.15 445.85 359.4 446.1 359.25 446.3 359.75 446.55 359.65 446.8 360.15 447.05 360.05 447.7 361.75 447.55 361.85 447.65 362.35 447.5 362.45 447.5 362.7 447.35 362.85 447.4 363.05 447.2 363.2 447.15 363.5 446.8 363.65 447.05 364.15 448.9 363.05 448.9 362.8 449.05 362.7 449.05 362.4 449.65 362.1 449.55 361.85 449.3 361.8 449.0 361.15 Q448.45 359.65 447.5 358.4 L447.2 358.4 446.6 357.05 446.4 357.0 446.25 356.9 446.0 356.9 445.9 356.75 445.4 356.9 445.3 356.7 445.05 356.75 444.95 356.55 444.7 356.6 444.55 356.45 444.35 356.45 444.2 356.3 443.9 356.25 443.75 355.9 443.5 355.9 443.2 355.25 442.9 355.25 442.3 353.9 442.05 353.85 441.4 352.5 440.75 352.25 440.0 352.45 439.9 352.35 439.4 352.45 439.25 352.3 438.1 352.7 437.9 352.6 434.15 354.4 434.0 354.3 433.05 354.65 432.9 354.45 432.45 354.6 432.3 354.45 431.85 354.6 431.7 354.4 431.25 354.55 431.1 354.35 429.3 354.85 429.25 355.2 428.65 355.45 428.6 355.75 425.55 357.05 425.65 356.5 425.85 356.35 425.9 356.1 427.0 355.55 426.95 355.4 427.05 355.2 427.1 355.05 427.2 354.85 427.25 354.7 427.35 354.5 427.4 354.35 427.5 354.2 426.85 351.85 427.05 351.75 426.8 351.05 426.95 350.9 426.75 350.45 426.45 350.4 426.3 350.05 425.85 350.35 425.7 350.0 425.45 349.95 425.2 349.6 425.05 349.65 424.85 349.45 424.6 349.55 424.95 350.3 425.2 350.2 425.45 350.95 424.85 350.65 424.6 350.8 424.8 351.3 425.05 351.15 425.25 351.6 425.45 351.5 425.8 352.5 425.7 352.6 425.8 353.15 425.35 353.2 425.2 352.85 424.95 352.85 424.85 352.7 424.55 352.65 424.4 352.3 424.15 352.35 424.0 352.15 423.75 352.25 424.0 352.75 424.25 352.65 424.45 353.15 424.7 353.05 424.9 353.55 425.15 353.45 425.25 353.7 425.5 353.6 425.6 354.05 425.5 354.2 425.6 354.55 425.35 354.8 425.0 354.4 424.65 354.35 424.5 354.0 424.25 354.1 424.6 354.85 424.9 354.85 424.7 355.1 424.75 355.45 424.0 354.25 423.7 354.2 423.55 353.85 423.3 353.8 423.1 353.45 422.9 353.45 422.75 353.3 422.5 353.4 422.5 353.65 422.4 353.75 422.6 354.25 422.8 354.15 423.1 355.35 422.9 355.0 422.7 355.05 422.55 354.85 422.35 354.9 422.2 354.7 422.0 354.75 421.85 354.6 421.65 354.6 421.5 354.45 421.25 354.45 421.15 354.3 420.9 354.4 421.2 355.15 421.45 355.05 421.55 355.3 421.8 355.2 422.05 355.7 422.3 355.6 422.5 356.1 422.75 355.95 422.85 356.2 423.1 356.1 423.2 356.3 423.45 356.2 423.5 356.8 423.05 357.3 423.15 357.75 422.8 358.15 422.25 358.2 422.4 358.6 421.9 358.95 421.6 358.8 421.15 358.9 421.0 358.75 420.55 358.9 420.45 358.7 420.2 358.75 420.1 358.55 419.85 358.6 419.7 358.4 419.5 358.45 419.35 358.3 418.85 358.5" fill="#1c1811" fill-rule="evenodd" stroke="none">
      <animate attributeName="fill" dur="2s" repeatCount="indefinite" values="#1c1811;#1c1812"/>
      <animate attributeName="fill-opacity" dur="2s" repeatCount="indefinite" values="1.0;0.0"/>
      <animate attributeName="d" dur="2s" repeatCount="indefinite" values="M418.85 358.5 L418.95 358.75 419.2 358.65 419.35 358.9 419.6 358.8 419.7 359.05 419.95 358.9 420.05 359.15 420.3 359.05 420.4 359.3 420.65 359.2 420.75 359.45 421.0 359.35 420.85 359.7 420.3 359.6 420.15 359.4 419.65 359.65 419.75 359.9 420.0 359.8 420.1 360.05 420.35 359.9 420.45 360.15 420.95 359.95 421.05 360.2 421.5 360.0 421.65 360.4 421.55 360.6 421.5 360.85 421.15 361.0 421.25 361.25 422.2 360.85 422.25 360.6 422.6 360.35 422.55 360.2 423.15 359.6 423.25 360.05 423.1 360.15 423.1 360.4 422.95 360.5 423.0 360.75 422.8 360.85 422.85 361.1 422.65 361.25 422.7 361.45 422.5 361.6 422.55 361.8 422.4 361.95 422.4 362.15 422.3 362.3 422.25 362.55 422.15 362.65 422.55 363.65 422.8 363.55 422.95 363.8 423.15 363.7 423.25 363.9 425.0 362.6 425.25 363.05 425.5 362.95 425.6 363.2 426.1 362.95 426.4 363.4 426.65 363.0 426.85 363.5 427.35 363.3 427.55 363.8 427.8 363.7 427.6 362.4 427.8 362.2 427.55 361.9 Q427.85 361.75 428.1 361.55 L428.2 361.75 428.7 361.55 428.8 361.8 429.05 361.7 429.15 361.95 429.65 361.7 429.75 361.95 429.95 361.85 430.05 362.1 430.3 362.0 430.4 362.25 430.65 362.15 430.75 362.4 431.0 362.3 431.25 362.8 431.5 362.7 431.6 362.95 431.85 362.85 432.05 363.35 432.35 363.35 432.15 363.6 432.75 365.0 432.55 365.15 432.7 365.6 432.5 365.75 432.75 366.45 432.6 366.6 432.95 367.55 432.75 367.65 432.9 368.15 432.75 368.25 432.85 368.75 432.75 368.85 432.7 369.1 432.6 369.25 432.6 369.45 432.45 369.6 432.4 369.9 432.05 370.05 432.2 370.55 432.05 370.65 432.05 370.85 431.9 371.0 432.1 371.5 433.5 370.6 433.35 370.15 433.5 370.0 433.4 369.55 434.0 369.2 433.75 368.45 433.95 368.35 433.8 367.9 434.0 367.75 433.75 367.05 433.9 366.95 433.9 366.7 434.05 366.55 433.9 366.1 434.1 365.95 433.95 365.5 434.1 365.35 433.8 363.8 Q434.15 363.65 434.45 363.45 L434.75 364.2 435.0 364.05 435.65 365.55 435.9 365.45 436.55 367.15 436.4 367.25 436.55 367.75 436.35 367.9 436.4 368.1 436.25 368.25 436.2 368.55 435.85 368.7 435.85 368.95 435.75 369.05 435.85 369.5 435.45 369.75 435.55 370.0 436.8 369.5 436.9 369.7 437.1 369.6 437.1 369.4 437.25 369.25 437.25 369.05 437.4 368.9 437.3 368.45 437.95 368.1 435.5 361.6 435.65 361.5 435.6 361.25 435.8 361.1 435.85 360.8 436.05 361.0 438.4 359.7 438.45 359.4 438.8 359.25 438.85 359.0 439.9 358.45 440.15 358.95 440.35 358.85 440.45 359.1 440.7 359.0 440.9 359.5 441.15 359.4 441.35 359.9 441.6 359.8 441.85 360.25 442.1 360.1 442.75 361.85 442.6 362.0 442.7 362.4 442.55 362.6 442.7 363.0 442.5 363.2 442.65 363.6 442.45 363.75 442.5 363.95 442.4 364.1 442.35 364.35 442.25 364.45 442.2 364.7 442.1 364.8 442.05 365.05 441.95 365.15 442.0 365.4 441.8 365.55 441.75 365.85 441.4 366.0 441.35 366.3 440.75 366.55 440.8 366.8 440.65 366.9 440.65 367.1 440.5 367.3 440.5 367.45 440.35 367.65 440.45 367.9 442.45 367.05 442.5 366.7 442.85 366.55 442.85 366.25 443.7 365.75 443.65 364.8 443.75 364.7 443.6 364.2 443.8 364.05 443.65 363.65 443.85 363.45 443.8 363.3 443.95 363.1 443.85 362.7 444.0 362.55 444.0 362.3 444.15 362.2 444.0 361.7 444.2 361.6 444.15 361.35 444.35 361.25 444.2 360.75 444.35 360.6 444.35 360.4 444.5 360.25 444.35 359.8 444.5 359.65 444.5 359.5 444.65 359.3 444.7 359.05 445.05 358.85 445.15 359.1 445.4 359.0 445.5 359.25 445.75 359.15 445.85 359.4 446.1 359.25 446.3 359.75 446.55 359.65 446.8 360.15 447.05 360.05 447.7 361.75 447.55 361.85 447.65 362.35 447.5 362.45 447.5 362.7 447.35 362.85 447.4 363.05 447.2 363.2 447.15 363.5 446.8 363.65 447.05 364.15 448.9 363.05 448.9 362.8 449.05 362.7 449.05 362.4 449.65 362.1 449.55 361.85 449.3 361.8 449.0 361.15 Q448.45 359.65 447.5 358.4 L447.2 358.4 446.6 357.05 446.4 357.0 446.25 356.9 446.0 356.9 445.9 356.75 445.4 356.9 445.3 356.7 445.05 356.75 444.95 356.55 444.7 356.6 444.55 356.45 444.35 356.45 444.2 356.3 443.9 356.25 443.75 355.9 443.5 355.9 443.2 355.25 442.9 355.25 442.3 353.9 442.05 353.85 441.4 352.5 440.75 352.25 440.0 352.45 439.9 352.35 439.4 352.45 439.25 352.3 438.1 352.7 437.9 352.6 434.15 354.4 434.0 354.3 433.05 354.65 432.9 354.45 432.45 354.6 432.3 354.45 431.85 354.6 431.7 354.4 431.25 354.55 431.1 354.35 429.3 354.85 429.25 355.2 428.65 355.45 428.6 355.75 425.55 357.05 425.65 356.5 425.85 356.35 425.9 356.1 427.0 355.55 426.95 355.4 427.05 355.2 427.1 355.05 427.2 354.85 427.25 354.7 427.35 354.5 427.4 354.35 427.5 354.2 426.85 351.85 427.05 351.75 426.8 351.05 426.95 350.9 426.75 350.45 426.45 350.4 426.3 350.05 425.85 350.35 425.7 350.0 425.45 349.95 425.2 349.6 425.05 349.65 424.85 349.45 424.6 349.55 424.95 350.3 425.2 350.2 425.45 350.95 424.85 350.65 424.6 350.8 424.8 351.3 425.05 351.15 425.25 351.6 425.45 351.5 425.8 352.5 425.7 352.6 425.8 353.15 425.35 353.2 425.2 352.85 424.95 352.85 424.85 352.7 424.55 352.65 424.4 352.3 424.15 352.35 424.0 352.15 423.75 352.25 424.0 352.75 424.25 352.65 424.45 353.15 424.7 353.05 424.9 353.55 425.15 353.45 425.25 353.7 425.5 353.6 425.6 354.05 425.5 354.2 425.6 354.55 425.35 354.8 425.0 354.4 424.65 354.35 424.5 354.0 424.25 354.1 424.6 354.85 424.9 354.85 424.7 355.1 424.75 355.45 424.0 354.25 423.7 354.2 423.55 353.85 423.3 353.8 423.1 353.45 422.9 353.45 422.75 353.3 422.5 353.4 422.5 353.65 422.4 353.75 422.6 354.25 422.8 354.15 423.1 355.35 422.9 355.0 422.7 355.05 422.55 354.85 422.35 354.9 422.2 354.7 422.0 354.75 421.85 354.6 421.65 354.6 421.5 354.45 421.25 354.45 421.15 354.3 420.9 354.4 421.2 355.15 421.45 355.05 421.55 355.3 421.8 355.2 422.05 355.7 422.3 355.6 422.5 356.1 422.75 355.95 422.85 356.2 423.1 356.1 423.2 356.3 423.45 356.2 423.5 356.8 423.05 357.3 423.15 357.75 422.8 358.15 422.25 358.2 422.4 358.6 421.9 358.95 421.6 358.8 421.15 358.9 421.0 358.75 420.55 358.9 420.45 358.7 420.2 358.75 420.1 358.55 419.85 358.6 419.7 358.4 419.5 358.45 419.35 358.3 418.85 358.5;M418.85 358.5 L418.95 358.75 419.2 358.65 419.35 358.9 419.6 358.8 419.7 359.05 419.95 358.9 420.05 359.15 420.3 359.05 420.4 359.3 420.65 359.2 420.75 359.45 421.0 359.35 420.85 359.7 420.3 359.6 420.15 359.4 419.65 359.65 419.75 359.9 420.0 359.8 420.1 360.05 420.35 359.9 420.45 360.15 420.95 359.95 421.05 360.2 421.5 360.0 421.65 360.4 421.55 360.6 421.5 360.85 421.15 361.0 421.25 361.25 422.2 360.85 422.25 360.6 422.6 360.35 422.55 360.2 423.15 359.6 423.25 360.05 423.1 360.15 423.1 360.4 422.95 360.5 423.0 360.75 422.8 360.85 422.85 361.1 422.65 361.25 422.7 361.45 422.5 361.6 422.55 361.8 422.4 361.95 422.4 362.15 422.3 362.3 422.25 362.55 422.15 362.65 422.55 363.65 422.8 363.55 422.95 363.8 423.15 363.7 423.25 363.9 425.0 362.6 425.25 363.05 425.5 362.95 425.6 363.2 426.1 362.95 426.4 363.4 426.65 363.0 426.85 363.5 427.35 363.3 427.55 363.8 427.8 363.7 427.6 362.4 427.8 362.2 427.55 361.9 Q427.85 361.75 428.1 361.55 L428.2 361.75 428.7 361.55 428.8 361.8 429.05 361.7 429.15 361.95 429.65 361.7 429.75 361.95 429.95 361.85 430.05 362.1 430.3 362.0 430.4 362.25 430.65 362.15 430.75 362.4 431.0 362.3 431.25 362.8 431.5 362.7 431.6 362.95 431.85 362.85 432.05 363.35 432.35 363.35 432.15 363.6 432.75 365.0 432.55 365.15 432.7 365.6 432.5 365.75 432.75 366.45 432.6 366.6 432.95 367.55 432.75 367.65 432.9 368.15 432.75 368.25 432.85 368.75 432.75 368.85 432.7 369.1 432.6 369.25 432.6 369.45 432.45 369.6 432.4 369.9 432.05 370.05 432.2 370.55 432.05 370.65 432.05 370.85 431.9 371.0 432.1 371.5 433.5 370.6 433.35 370.15 433.5 370.0 433.4 369.55 434.0 369.2 433.75 368.45 433.95 368.35 433.8 367.9 434.0 367.75 433.75 367.05 433.9 366.95 433.9 366.7 434.05 366.55 433.9 366.1 434.1 365.95 433.95 365.5 434.1 365.35 433.8 363.8 Q434.15 363.65 434.45 363.45 L434.75 364.2 435.0 364.05 435.65 365.55 435.9 365.45 436.55 367.15 436.4 367.25 436.55 367.75 436.35 367.9 436.4 368.1 436.25 368.25 436.2 368.55 435.85 368.7 435.85 368.95 435.75 369.05 435.85 369.5 435.45 369.75 435.55 370.0 436.8 369.5 436.9 369.7 437.1 369.6 437.1 369.4 437.25 369.25 437.25 369.05 437.4 368.9 437.3 368.45 437.95 368.1 435.5 361.6 435.65 361.5 435.6 361.25 435.8 361.1 435.85 360.8 436.05 361.0 438.4 359.7 438.45 359.4 438.8 359.25 438.85 359.0 439.9 358.45 440.15 358.95 440.35 358.85 440.45 359.1 440.7 359.0 440.9 359.5 441.15 359.4 441.35 359.9 441.6 359.8 441.85 360.25 442.1 360.1 442.75 361.85 442.6 362.0 442.7 362.4 442.55 362.6 442.7 363.0 442.5 363.2 442.65 363.6 442.45 363.75 442.5 363.95 442.4 364.1 442.35 364.35 442.25 364.45 442.2 364.7 442.1 364.8 442.05 365.05 441.95 365.15 442.0 365.4 441.8 365.55 441.75 365.85 441.4 366.0 441.35 366.3 440.75 366.55 440.8 366.8 440.65 366.9 440.65 367.1 440.5 367.3 440.5 367.45 440.35 367.65 440.45 367.9 442.45 367.05 442.5 366.7 442.85 366.55 442.85 366.25 443.7 365.75 443.65 364.8 443.75 364.7 443.6 364.2 443.8 364.05 443.65 363.65 443.85 363.45 443.8 363.3 443.95 363.1 443.85 362.7 444.0 362.55 444.0 362.3 444.15 362.2 444.0 361.7 444.2 361.6 444.15 361.35 444.35 361.25 444.2 360.75 444.35 360.6 444.35 360.4 444.5 360.25 444.35 359.8 444.5 359.65 444.5 359.5 444.65 359.3 444.7 359.05 445.05 358.85 445.15 359.1 445.4 359.0 445.5 359.25 445.75 359.15 445.85 359.4 446.1 359.25 446.3 359.75 446.55 359.65 446.8 360.15 447.05 360.05 447.7 361.75 447.55 361.85 447.65 362.35 447.5 362.45 447.5 362.7 447.35 362.85 447.4 363.05 447.2 363.2 447.15 363.5 446.8 363.65 447.05 364.15 448.9 363.05 448.9 362.8 449.05 362.7 449.05 362.4 449.65 362.1 449.55 361.85 449.3 361.8 449.0 361.15 Q448.45 359.65 447.5 358.4 L447.2 358.4 446.6 357.05 446.4 357.0 446.25 356.9 446.0 356.9 445.9 356.75 445.4 356.9 445.3 356.7 445.05 356.75 444.95 356.55 444.7 356.6 444.55 356.45 444.35 356.45 444.2 356.3 443.9 356.25 443.75 355.9 443.5 355.9 443.2 355.25 442.9 355.25 442.3 353.9 442.05 353.85 441.4 352.5 440.75 352.25 440.0 352.45 439.9 352.35 439.4 352.45 439.25 352.3 438.1 352.7 437.9 352.6 434.15 354.4 434.0 354.3 433.05 354.65 432.9 354.45 432.45 354.6 432.3 354.45 431.85 354.6 431.7 354.4 431.25 354.55 431.1 354.35 429.3 354.85 429.25 355.2 428.65 355.45 428.6 355.75 425.55 357.05 425.65 356.5 425.85 356.35 425.9 356.1 427.0 355.55 426.95 355.4 427.05 355.2 427.1 355.05 427.2 354.85 427.25 354.7 427.35 354.5 427.4 354.35 427.5 354.2 426.85 351.85 427.05 351.75 426.8 351.05 426.95 350.9 426.75 350.45 426.45 350.4 426.3 350.05 425.85 350.35 425.7 350.0 425.45 349.95 425.2 349.6 425.05 349.65 424.85 349.45 424.6 349.55 424.95 350.3 425.2 350.2 425.45 350.95 424.85 350.65 424.6 350.8 424.8 351.3 425.05 351.15 425.25 351.6 425.45 351.5 425.8 352.5 425.7 352.6 425.8 353.15 425.35 353.2 425.2 352.85 424.95 352.85 424.85 352.7 424.55 352.65 424.4 352.3 424.15 352.35 424.0 352.15 423.75 352.25 424.0 352.75 424.25 352.65 424.45 353.15 424.7 353.05 424.9 353.55 425.15 353.45 425.25 353.7 425.5 353.6 425.6 354.05 425.5 354.2 425.6 354.55 425.35 354.8 425.0 354.4 424.65 354.35 424.5 354.0 424.25 354.1 424.6 354.85 424.9 354.85 424.7 355.1 424.75 355.45 424.0 354.25 423.7 354.2 423.55 353.85 423.3 353.8 423.1 353.45 422.9 353.45 422.75 353.3 422.5 353.4 422.5 353.65 422.4 353.75 422.6 354.25 422.8 354.15 423.1 355.35 422.9 355.0 422.7 355.05 422.55 354.85 422.35 354.9 422.2 354.7 422.0 354.75 421.85 354.6 421.65 354.6 421.5 354.45 421.25 354.45 421.15 354.3 420.9 354.4 421.2 355.15 421.45 355.05 421.55 355.3 421.8 355.2 422.05 355.7 422.3 355.6 422.5 356.1 422.75 355.95 422.85 356.2 423.1 356.1 423.2 356.3 423.45 356.2 423.5 356.8 423.05 357.3 423.15 357.75 422.8 358.15 422.25 358.2 422.4 358.6 421.9 358.95 421.6 358.8 421.15 358.9 421.0 358.75 420.55 358.9 420.45 358.7 420.2 358.75 420.1 358.55 419.85 358.6 419.7 358.4 419.5 358.45 419.35 358.3 418.85 358.5"/>
    </path>
    <path d="M418.85 358.5 L419.35 358.3 419.5 358.45 419.7 358.4 419.85 358.6 420.1 358.55 420.2 358.75 420.45 358.7 420.55 358.9 421.0 358.75 421.15 358.9 421.6 358.8 421.9 358.95 422.4 358.6 422.25 358.2 422.8 358.15 423.15 357.75 423.05 357.3 423.5 356.8 423.45 356.2 423.2 356.3 423.1 356.1 422.85 356.2 422.75 355.95 422.5 356.1 422.3 355.6 422.05 355.7 421.8 355.2 421.55 355.3 421.45 355.05 421.2 355.15 420.9 354.4 421.15 354.3 421.25 354.45 421.5 354.45 421.65 354.6 421.85 354.6 422.0 354.75 422.2 354.7 422.35 354.9 422.55 354.85 422.7 355.05 422.9 355.0 423.1 355.35 422.8 354.15 422.6 354.25 422.4 353.75 422.5 353.65 422.5 353.4 422.75 353.3 422.9 353.45 423.1 353.45 423.3 353.8 423.55 353.85 423.7 354.2 424.0 354.25 424.75 355.45 424.7 355.1 424.9 354.85 424.6 354.85 424.25 354.1 424.5 354.0 424.65 354.35 425.0 354.4 425.35 354.8 425.6 354.55 425.5 354.2 425.6 354.05 425.5 353.6 425.25 353.7 425.15 353.45 424.9 353.55 424.7 353.05 424.45 353.15 424.25 352.65 424.0 352.75 423.75 352.25 424.0 352.15 424.15 352.35 424.4 352.3 424.55 352.65 424.85 352.7 424.95 352.85 425.2 352.85 425.35 353.2 425.8 353.15 425.7 352.6 425.8 352.5 425.45 351.5 425.25 351.6 425.05 351.15 424.8 351.3 424.6 350.8 424.85 350.65 425.45 350.95 425.2 350.2 424.95 350.3 424.6 349.55 424.85 349.45 425.05 349.65 425.2 349.6 425.45 349.95 425.7 350.0 425.85 350.35 426.3 350.05 426.45 350.4 426.75 350.45 426.95 350.9 426.8 351.05 427.05 351.75 426.85 351.85 427.5 354.2 427.4 354.35 427.35 354.5 427.25 354.7 427.2 354.85 427.1 355.05 427.05 355.2 426.95 355.4 427.0 355.55 425.9 356.1 425.85 356.35 425.65 356.5 425.55 357.05 428.6 355.75 428.65 355.45 429.25 355.2 429.3 354.85 431.1 354.35 431.25 354.55 431.7 354.4 431.85 354.6 432.3 354.45 432.45 354.6 432.9 354.45 433.05 354.65 434.0 354.3 434.15 354.4 437.9 352.6 438.1 352.7 439.25 352.3 439.4 352.45 439.9 352.35 440.0 352.45 440.75 352.25 441.4 352.5 442.05 353.85 442.3 353.9 442.9 355.25 443.2 355.25 443.5 355.9 443.75 355.9 443.9 356.25 444.2 356.3 444.35 356.45 444.55 356.45 444.7 356.6 444.95 356.55 445.05 356.75 445.3 356.7 445.4 356.9 445.9 356.75 446.0 356.9 446.25 356.9 446.4 357.0 446.6 357.05 447.2 358.4 447.5 358.4 Q448.45 359.65 449.0 361.15 L449.3 361.8 449.55 361.85 449.65 362.1 449.05 362.4 449.05 362.7 448.9 362.8 448.9 363.05 447.05 364.15 446.8 363.65 447.15 363.5 447.2 363.2 447.4 363.05 447.35 362.85 447.5 362.7 447.5 362.45 447.65 362.35 447.55 361.85 447.7 361.75 447.05 360.05 446.8 360.15 446.55 359.65 446.3 359.75 446.1 359.25 445.85 359.4 445.75 359.15 445.5 359.25 445.4 359.0 445.15 359.1 445.05 358.85 444.7 359.05 444.65 359.3 444.5 359.5 444.5 359.65 444.35 359.8 444.5 360.25 444.35 360.4 444.35 360.6 444.2 360.75 444.35 361.25 444.15 361.35 444.2 361.6 444.0 361.7 444.15 362.2 444.0 362.3 444.0 362.55 443.85 362.7 443.95 363.1 443.8 363.3 443.85 363.45 443.65 363.65 443.8 364.05 443.6 364.2 443.75 364.7 443.65 364.8 443.7 365.75 442.85 366.25 442.85 366.55 442.5 366.7 442.45 367.05 440.45 367.9 440.35 367.65 440.5 367.45 440.5 367.3 440.65 367.1 440.65 366.9 440.8 366.8 440.75 366.55 441.35 366.3 441.4 366.0 441.75 365.85 441.8 365.55 442.0 365.4 441.95 365.15 442.05 365.05 442.1 364.8 442.2 364.7 442.25 364.45 442.35 364.35 442.4 364.1 442.5 363.95 442.45 363.75 442.65 363.6 442.5 363.2 442.7 363.0 442.55 362.6 442.7 362.4 442.6 362.0 442.75 361.85 442.1 360.1 441.85 360.25 441.6 359.8 441.35 359.9 441.15 359.4 440.9 359.5 440.7 359.0 440.45 359.1 440.35 358.85 440.15 358.95 439.9 358.45 438.85 359.0 438.8 359.25 438.45 359.4 438.4 359.7 436.05 361.0 435.85 360.8 435.8 361.1 435.6 361.25 435.65 361.5 435.5 361.6 437.95 368.1 437.3 368.45 437.4 368.9 437.25 369.05 437.25 369.25 437.1 369.4 437.1 369.6 436.9 369.7 436.8 369.5 435.55 370.0 435.45 369.75 435.85 369.5 435.75 369.05 435.85 368.95 435.85 368.7 436.2 368.55 436.25 368.25 436.4 368.1 436.35 367.9 436.55 367.75 436.4 367.25 436.55 367.15 435.9 365.45 435.65 365.55 435.0 364.05 434.75 364.2 434.45 363.45 Q434.15 363.65 433.8 363.8 L434.1 365.35 433.95 365.5 434.1 365.95 433.9 366.1 434.05 366.55 433.9 366.7 433.9 366.95 433.75 367.05 434.0 367.75 433.8 367.9 433.95 368.35 433.75 368.45 434.0 369.2 433.4 369.55 433.5 370.0 433.35 370.15 433.5 370.6 432.1 371.5 431.9 371.0 432.05 370.85 432.05 370.65 432.2 370.55 432.05 370.05 432.4 369.9 432.45 369.6 432.6 369.45 432.6 369.25 432.7 369.1 432.75 368.85 432.85 368.75 432.75 368.25 432.9 368.15 432.75 367.65 432.95 367.55 432.6 366.6 432.75 366.45 432.5 365.75 432.7 365.6 432.55 365.15 432.75 365.0 432.15 363.6 432.35 363.35 432.05 363.35 431.85 362.85 431.6 362.95 431.5 362.7 431.25 362.8 431.0 362.3 430.75 362.4 430.65 362.15 430.4 362.25 430.3 362.0 430.05 362.1 429.95 361.85 429.75 361.95 429.65 361.7 429.15 361.95 429.05 361.7 428.8 361.8 428.7 361.55 428.2 361.75 428.1 361.55 Q427.85 361.75 427.55 361.9 L427.8 362.2 427.6 362.4 427.8 363.7 427.55 363.8 427.35 363.3 426.85 363.5 426.65 363.0 426.4 363.4 426.1 362.95 425.6 363.2 425.5 362.95 425.25 363.05 425.0 362.6 423.25 363.9 423.15 363.7 422.95 363.8 422.8 363.55 422.55 363.65 422.15 362.65 422.25 362.55 422.3 362.3 422.4 362.15 422.4 361.95 422.55 361.8 422.5 361.6 422.7 361.45 422.65 361.25 422.85 361.1 422.8 360.85 423.0 360.75 422.95 360.5 423.1 360.4 423.1 360.15 423.25 360.05 423.15 359.6 422.55 360.2 422.6 360.35 422.25 360.6 422.2 360.85 421.25 361.25 421.15 361.0 421.5 360.85 421.55 360.6 421.65 360.4 421.5 360.0 421.05 360.2 420.95 359.95 420.45 360.15 420.35 359.9 420.1 360.05 420.0 359.8 419.75 359.9 419.65 359.65 420.15 359.4 420.3 359.6 420.85 359.7 421.0 359.35 420.75 359.45 420.65 359.2 420.4 359.3 420.3 359.05 420.05 359.15 419.95 358.9 419.7 359.05 419.6 358.8 419.35 358.9 419.2 358.65 418.95 358.75 418.85 358.5" fill="none" stroke="#000000" stroke-linecap="round" stroke-linejoin="round" stroke-opacity="0.0" stroke-width="1.0">
      <animate attributeName="stroke" dur="2s" repeatCount="indefinite" values="#000000;#000001"/>
      <animate attributeName="stroke-width" dur="2s" repeatCount="indefinite" values="0.0;0.0"/>
      <animate attributeName="fill-opacity" dur="2s" repeatCount="indefinite" values="0.0;0.0"/>
      <animate attributeName="d" dur="2s" repeatCount="indefinite" values="M418.85 358.5 L419.35 358.3 419.5 358.45 419.7 358.4 419.85 358.6 420.1 358.55 420.2 358.75 420.45 358.7 420.55 358.9 421.0 358.75 421.15 358.9 421.6 358.8 421.9 358.95 422.4 358.6 422.25 358.2 422.8 358.15 423.15 357.75 423.05 357.3 423.5 356.8 423.45 356.2 423.2 356.3 423.1 356.1 422.85 356.2 422.75 355.95 422.5 356.1 422.3 355.6 422.05 355.7 421.8 355.2 421.55 355.3 421.45 355.05 421.2 355.15 420.9 354.4 421.15 354.3 421.25 354.45 421.5 354.45 421.65 354.6 421.85 354.6 422.0 354.75 422.2 354.7 422.35 354.9 422.55 354.85 422.7 355.05 422.9 355.0 423.1 355.35 422.8 354.15 422.6 354.25 422.4 353.75 422.5 353.65 422.5 353.4 422.75 353.3 422.9 353.45 423.1 353.45 423.3 353.8 423.55 353.85 423.7 354.2 424.0 354.25 424.75 355.45 424.7 355.1 424.9 354.85 424.6 354.85 424.25 354.1 424.5 354.0 424.65 354.35 425.0 354.4 425.35 354.8 425.6 354.55 425.5 354.2 425.6 354.05 425.5 353.6 425.25 353.7 425.15 353.45 424.9 353.55 424.7 353.05 424.45 353.15 424.25 352.65 424.0 352.75 423.75 352.25 424.0 352.15 424.15 352.35 424.4 352.3 424.55 352.65 424.85 352.7 424.95 352.85 425.2 352.85 425.35 353.2 425.8 353.15 425.7 352.6 425.8 352.5 425.45 351.5 425.25 351.6 425.05 351.15 424.8 351.3 424.6 350.8 424.85 350.65 425.45 350.95 425.2 350.2 424.95 350.3 424.6 349.55 424.85 349.45 425.05 349.65 425.2 349.6 425.45 349.95 425.7 350.0 425.85 350.35 426.3 350.05 426.45 350.4 426.75 350.45 426.95 350.9 426.8 351.05 427.05 351.75 426.85 351.85 427.5 354.2 427.4 354.35 427.35 354.5 427.25 354.7 427.2 354.85 427.1 355.05 427.05 355.2 426.95 355.4 427.0 355.55 425.9 356.1 425.85 356.35 425.65 356.5 425.55 357.05 428.6 355.75 428.65 355.45 429.25 355.2 429.3 354.85 431.1 354.35 431.25 354.55 431.7 354.4 431.85 354.6 432.3 354.45 432.45 354.6 432.9 354.45 433.05 354.65 434.0 354.3 434.15 354.4 437.9 352.6 438.1 352.7 439.25 352.3 439.4 352.45 439.9 352.35 440.0 352.45 440.75 352.25 441.4 352.5 442.05 353.85 442.3 353.9 442.9 355.25 443.2 355.25 443.5 355.9 443.75 355.9 443.9 356.25 444.2 356.3 444.35 356.45 444.55 356.45 444.7 356.6 444.95 356.55 445.05 356.75 445.3 356.7 445.4 356.9 445.9 356.75 446.0 356.9 446.25 356.9 446.4 357.0 446.6 357.05 447.2 358.4 447.5 358.4 Q448.45 359.65 449.0 361.15 L449.3 361.8 449.55 361.85 449.65 362.1 449.05 362.4 449.05 362.7 448.9 362.8 448.9 363.05 447.05 364.15 446.8 363.65 447.15 363.5 447.2 363.2 447.4 363.05 447.35 362.85 447.5 362.7 447.5 362.45 447.65 362.35 447.55 361.85 447.7 361.75 447.05 360.05 446.8 360.15 446.55 359.65 446.3 359.75 446.1 359.25 445.85 359.4 445.75 359.15 445.5 359.25 445.4 359.0 445.15 359.1 445.05 358.85 444.7 359.05 444.65 359.3 444.5 359.5 444.5 359.65 444.35 359.8 444.5 360.25 444.35 360.4 444.35 360.6 444.2 360.75 444.35 361.25 444.15 361.35 444.2 361.6 444.0 361.7 444.15 362.2 444.0 362.3 444.0 362.55 443.85 362.7 443.95 363.1 443.8 363.3 443.85 363.45 443.65 363.65 443.8 364.05 443.6 364.2 443.75 364.7 443.65 364.8 443.7 365.75 442.85 366.25 442.85 366.55 442.5 366.7 442.45 367.05 440.45 367.9 440.35 367.65 440.5 367.45 440.5 367.3 440.65 367.1 440.65 366.9 440.8 366.8 440.75 366.55 441.35 366.3 441.4 366.0 441.75 365.85 441.8 365.55 442.0 365.4 441.95 365.15 442.05 365.05 442.1 364.8 442.2 364.7 442.25 364.45 442.35 364.35 442.4 364.1 442.5 363.95 442.45 363.75 442.65 363.6 442.5 363.2 442.7 363.0 442.55 362.6 442.7 362.4 442.6 362.0 442.75 361.85 442.1 360.1 441.85 360.25 441.6 359.8 441.35 359.9 441.15 359.4 440.9 359.5 440.7 359.0 440.45 359.1 440.35 358.85 440.15 358.95 439.9 358.45 438.85 359.0 438.8 359.25 438.45 359.4 438.4 359.7 436.05 361.0 435.85 360.8 435.8 361.1 435.6 361.25 435.65 361.5 435.5 361.6 437.95 368.1 437.3 368.45 437.4 368.9 437.25 369.05 437.25 369.25 437.1 369.4 437.1 369.6 436.9 369.7 436.8 369.5 435.55 370.0 435.45 369.75 435.85 369.5 435.75 369.05 435.85 368.95 435.85 368.7 436.2 368.55 436.25 368.25 436.4 368.1 436.35 367.9 436.55 367.75 436.4 367.25 436.55 367.15 435.9 365.45 435.65 365.55 435.0 364.05 434.75 364.2 434.45 363.45 Q434.15 363.65 433.8 363.8 L434.1 365.35 433.95 365.5 434.1 365.95 433.9 366.1 434.05 366.55 433.9 366.7 433.9 366.95 433.75 367.05 434.0 367.75 433.8 367.9 433.95 368.35 433.75 368.45 434.0 369.2 433.4 369.55 433.5 370.0 433.35 370.15 433.5 370.6 432.1 371.5 431.9 371.0 432.05 370.85 432.05 370.65 432.2 370.55 432.05 370.05 432.4 369.9 432.45 369.6 432.6 369.45 432.6 369.25 432.7 369.1 432.75 368.85 432.85 368.75 432.75 368.25 432.9 368.15 432.75 367.65 432.95 367.55 432.6 366.6 432.75 366.45 432.5 365.75 432.7 365.6 432.55 365.15 432.75 365.0 432.15 363.6 432.35 363.35 432.05 363.35 431.85 362.85 431.6 362.95 431.5 362.7 431.25 362.8 431.0 362.3 430.75 362.4 430.65 362.15 430.4 362.25 430.3 362.0 430.05 362.1 429.95 361.85 429.75 361.95 429.65 361.7 429.15 361.95 429.05 361.7 428.8 361.8 428.7 361.55 428.2 361.75 428.1 361.55 Q427.85 361.75 427.55 361.9 L427.8 362.2 427.6 362.4 427.8 363.7 427.55 363.8 427.35 363.3 426.85 363.5 426.65 363.0 426.4 363.4 426.1 362.95 425.6 363.2 425.5 362.95 425.25 363.05 425.0 362.6 423.25 363.9 423.15 363.7 422.95 363.8 422.8 363.55 422.55 363.65 422.15 362.65 422.25 362.55 422.3 362.3 422.4 362.15 422.4 361.95 422.55 361.8 422.5 361.6 422.7 361.45 422.65 361.25 422.85 361.1 422.8 360.85 423.0 360.75 422.95 360.5 423.1 360.4 423.1 360.15 423.25 360.05 423.15 359.6 422.55 360.2 422.6 360.35 422.25 360.6 422.2 360.85 421.25 361.25 421.15 361.0 421.5 360.85 421.55 360.6 421.65 360.4 421.5 360.0 421.05 360.2 420.95 359.95 420.45 360.15 420.35 359.9 420.1 360.05 420.0 359.8 419.75 359.9 419.65 359.65 420.15 359.4 420.3 359.6 420.85 359.7 421.0 359.35 420.75 359.45 420.65 359.2 420.4 359.3 420.3 359.05 420.05 359.15 419.95 358.9 419.7 359.05 419.6 358.8 419.35 358.9 419.2 358.65 418.95 358.75 418.85 358.5;M418.85 358.5 L419.35 358.3 419.5 358.45 419.7 358.4 419.85 358.6 420.1 358.55 420.2 358.75 420.45 358.7 420.55 358.9 421.0 358.75 421.15 358.9 421.6 358.8 421.9 358.95 422.4 358.6 422.25 358.2 422.8 358.15 423.15 357.75 423.05 357.3 423.5 356.8 423.45 356.2 423.2 356.3 423.1 356.1 422.85 356.2 422.75 355.95 422.5 356.1 422.3 355.6 422.05 355.7 421.8 355.2 421.55 355.3 421.45 355.05 421.2 355.15 420.9 354.4 421.15 354.3 421.25 354.45 421.5 354.45 421.65 354.6 421.85 354.6 422.0 354.75 422.2 354.7 422.35 354.9 422.55 354.85 422.7 355.05 422.9 355.0 423.1 355.35 422.8 354.15 422.6 354.25 422.4 353.75 422.5 353.65 422.5 353.4 422.75 353.3 422.9 353.45 423.1 353.45 423.3 353.8 423.55 353.85 423.7 354.2 424.0 354.25 424.75 355.45 424.7 355.1 424.9 354.85 424.6 354.85 424.25 354.1 424.5 354.0 424.65 354.35 425.0 354.4 425.35 354.8 425.6 354.55 425.5 354.2 425.6 354.05 425.5 353.6 425.25 353.7 425.15 353.45 424.9 353.55 424.7 353.05 424.45 353.15 424.25 352.65 424.0 352.75 423.75 352.25 424.0 352.15 424.15 352.35 424.4 352.3 424.55 352.65 424.85 352.7 424.95 352.85 425.2 352.85 425.35 353.2 425.8 353.15 425.7 352.6 425.8 352.5 425.45 351.5 425.25 351.6 425.05 351.15 424.8 351.3 424.6 350.8 424.85 350.65 425.45 350.95 425.2 350.2 424.95 350.3 424.6 349.55 424.85 349.45 425.05 349.65 425.2 349.6 425.45 349.95 425.7 350.0 425.85 350.35 426.3 350.05 426.45 350.4 426.75 350.45 426.95 350.9 426.8 351.05 427.05 351.75 426.85 351.85 427.5 354.2 427.4 354.35 427.35 354.5 427.25 354.7 427.2 354.85 427.1 355.05 427.05 355.2 426.95 355.4 427.0 355.55 425.9 356.1 425.85 356.35 425.65 356.5 425.55 357.05 428.6 355.75 428.65 355.45 429.25 355.2 429.3 354.85 431.1 354.35 431.25 354.55 431.7 354.4 431.85 354.6 432.3 354.45 432.45 354.6 432.9 354.45 433.05 354.65 434.0 354.3 434.15 354.4 437.9 352.6 438.1 352.7 439.25 352.3 439.4 352.45 439.9 352.35 440.0 352.45 440.75 352.25 441.4 352.5 442.05 353.85 442.3 353.9 442.9 355.25 443.2 355.25 443.5 355.9 443.75 355.9 443.9 356.25 444.2 356.3 444.35 356.45 444.55 356.45 444.7 356.6 444.95 356.55 445.05 356.75 445.3 356.7 445.4 356.9 445.9 356.75 446.0 356.9 446.25 356.9 446.4 357.0 446.6 357.05 447.2 358.4 447.5 358.4 Q448.45 359.65 449.0 361.15 L449.3 361.8 449.55 361.85 449.65 362.1 449.05 362.4 449.05 362.7 448.9 362.8 448.9 363.05 447.05 364.15 446.8 363.65 447.15 363.5 447.2 363.2 447.4 363.05 447.35 362.85 447.5 362.7 447.5 362.45 447.65 362.35 447.55 361.85 447.7 361.75 447.05 360.05 446.8 360.15 446.55 359.65 446.3 359.75 446.1 359.25 445.85 359.4 445.75 359.15 445.5 359.25 445.4 359.0 445.15 359.1 445.05 358.85 444.7 359.05 444.65 359.3 444.5 359.5 444.5 359.65 444.35 359.8 444.5 360.25 444.35 360.4 444.35 360.6 444.2 360.75 444.35 361.25 444.15 361.35 444.2 361.6 444.0 361.7 444.15 362.2 444.0 362.3 444.0 362.55 443.85 362.7 443.95 363.1 443.8 363.3 443.85 363.45 443.65 363.65 443.8 364.05 443.6 364.2 443.75 364.7 443.65 364.8 443.7 365.75 442.85 366.25 442.85 366.55 442.5 366.7 442.45 367.05 440.45 367.9 440.35 367.65 440.5 367.45 440.5 367.3 440.65 367.1 440.65 366.9 440.8 366.8 440.75 366.55 441.35 366.3 441.4 366.0 441.75 365.85 441.8 365.55 442.0 365.4 441.95 365.15 442.05 365.05 442.1 364.8 442.2 364.7 442.25 364.45 442.35 364.35 442.4 364.1 442.5 363.95 442.45 363.75 442.65 363.6 442.5 363.2 442.7 363.0 442.55 362.6 442.7 362.4 442.6 362.0 442.75 361.85 442.1 360.1 441.85 360.25 441.6 359.8 441.35 359.9 441.15 359.4 440.9 359.5 440.7 359.0 440.45 359.1 440.35 358.85 440.15 358.95 439.9 358.45 438.85 359.0 438.8 359.25 438.45 359.4 438.4 359.7 436.05 361.0 435.85 360.8 435.8 361.1 435.6 361.25 435.65 361.5 435.5 361.6 437.95 368.1 437.3 368.45 437.4 368.9 437.25 369.05 437.25 369.25 437.1 369.4 437.1 369.6 436.9 369.7 436.8 369.5 435.55 370.0 435.45 369.75 435.85 369.5 435.75 369.05 435.85 368.95 435.85 368.7 436.2 368.55 436.25 368.25 436.4 368.1 436.35 367.9 436.55 367.75 436.4 367.25 436.55 367.15 435.9 365.45 435.65 365.55 435.0 364.05 434.75 364.2 434.45 363.45 Q434.15 363.65 433.8 363.8 L434.1 365.35 433.95 365.5 434.1 365.95 433.9 366.1 434.05 366.55 433.9 366.7 433.9 366.95 433.75 367.05 434.0 367.75 433.8 367.9 433.95 368.35 433.75 368.45 434.0 369.2 433.4 369.55 433.5 370.0 433.35 370.15 433.5 370.6 432.1 371.5 431.9 371.0 432.05 370.85 432.05 370.65 432.2 370.55 432.05 370.05 432.4 369.9 432.45 369.6 432.6 369.45 432.6 369.25 432.7 369.1 432.75 368.85 432.85 368.75 432.75 368.25 432.9 368.15 432.75 367.65 432.95 367.55 432.6 366.6 432.75 366.45 432.5 365.75 432.7 365.6 432.55 365.15 432.75 365.0 432.15 363.6 432.35 363.35 432.05 363.35 431.85 362.85 431.6 362.95 431.5 362.7 431.25 362.8 431.0 362.3 430.75 362.4 430.65 362.15 430.4 362.25 430.3 362.0 430.05 362.1 429.95 361.85 429.75 361.95 429.65 361.7 429.15 361.95 429.05 361.7 428.8 361.8 428.7 361.55 428.2 361.75 428.1 361.55 Q427.85 361.75 427.55 361.9 L427.8 362.2 427.6 362.4 427.8 363.7 427.55 363.8 427.35 363.3 426.85 363.5 426.65 363.0 426.4 363.4 426.1 362.95 425.6 363.2 425.5 362.95 425.25 363.05 425.0 362.6 423.25 363.9 423.15 363.7 422.95 363.8 422.8 363.55 422.55 363.65 422.15 362.65 422.25 362.55 422.3 362.3 422.4 362.15 422.4 361.95 422.55 361.8 422.5 361.6 422.7 361.45 422.65 361.25 422.85 361.1 422.8 360.85 423.0 360.75 422.95 360.5 423.1 360.4 423.1 360.15 423.25 360.05 423.15 359.6 422.55 360.2 422.6 360.35 422.25 360.6 422.2 360.85 421.25 361.25 421.15 361.0 421.5 360.85 421.55 360.6 421.65 360.4 421.5 360.0 421.05 360.2 420.95 359.95 420.45 360.15 420.35 359.9 420.1 360.05 420.0 359.8 419.75 359.9 419.65 359.65 420.15 359.4 420.3 359.6 420.85 359.7 421.0 359.35 420.75 359.45 420.65 359.2 420.4 359.3 420.3 359.05 420.05 359.15 419.95 358.9 419.7 359.05 419.6 358.8 419.35 358.9 419.2 358.65 418.95 358.75 418.85 358.5"/>
    </path>
  </g>
</svg>
