<?xml version="1.0" encoding="UTF-8" standalone="no"?>
<svg xmlns:xlink="http://www.w3.org/1999/xlink" height="45.3px" width="75.9px" xmlns="http://www.w3.org/2000/svg">
  <g transform="matrix(3.0, 0.0, 0.0, 3.0, -738.45, -1509.45)">
    <path d="M246.15 512.9 Q248.0 511.75 249.05 512.4 L249.15 512.5 Q250.0 514.25 252.0 515.8 L252.1 515.85 254.85 517.45 254.95 517.5 Q261.8 520.0 266.4 514.0 L266.45 514.0 267.6 517.2 267.7 517.25 Q269.5 514.2 268.45 511.1 L268.5 511.05 269.6 509.15 269.65 509.05 269.85 508.2 270.0 507.85 270.05 507.8 270.2 507.4 270.2 507.35 271.1 505.4 Q272.05 503.4 270.45 503.15 L270.4 503.25 Q269.05 504.2 267.75 505.4 L267.7 505.4 Q262.75 508.5 258.25 512.6 L257.25 513.1 255.2 513.45 254.45 513.45 Q253.8 513.45 252.9 512.95 L252.5 512.85 251.0 511.85 250.9 511.8 250.35 511.5 Q250.15 507.8 249.55 504.25 L249.5 504.2 249.4 504.1 248.55 503.65 248.5 503.6 Q248.2 506.1 248.25 509.45 248.45 510.55 247.45 510.65 L247.4 510.75 246.7 511.9 246.65 512.05 246.15 512.9" fill="#333333" fill-rule="evenodd" stroke="none">
      <animate attributeName="fill" dur="2s" repeatCount="indefinite" values="#333333;#333334"/>
      <animate attributeName="fill-opacity" dur="2s" repeatCount="indefinite" values="1.0;0.0"/>
      <animate attributeName="d" dur="2s" repeatCount="indefinite" values="M246.15 512.9 Q248.0 511.75 249.05 512.4 L249.15 512.5 Q250.0 514.25 252.0 515.8 L252.1 515.85 254.85 517.45 254.95 517.5 Q261.8 520.0 266.4 514.0 L266.45 514.0 267.6 517.2 267.7 517.25 Q269.5 514.2 268.45 511.1 L268.5 511.05 269.6 509.15 269.65 509.05 269.85 508.2 270.0 507.85 270.05 507.8 270.2 507.4 270.2 507.35 271.1 505.4 Q272.05 503.4 270.45 503.15 L270.4 503.25 Q269.05 504.2 267.75 505.4 L267.7 505.4 Q262.75 508.5 258.25 512.6 L257.25 513.1 255.2 513.45 254.45 513.45 Q253.8 513.45 252.9 512.95 L252.5 512.85 251.0 511.85 250.9 511.8 250.35 511.5 Q250.15 507.8 249.55 504.25 L249.5 504.2 249.4 504.1 248.55 503.65 248.5 503.6 Q248.2 506.1 248.25 509.45 248.45 510.55 247.45 510.65 L247.4 510.75 246.7 511.9 246.65 512.05 246.15 512.9;M246.15 512.9 Q248.0 511.75 249.05 512.4 L249.15 512.5 Q250.0 514.25 252.0 515.8 L252.1 515.85 254.85 517.45 254.95 517.5 Q261.8 520.0 266.4 514.0 L266.45 514.0 267.6 517.2 267.7 517.25 Q269.5 514.2 268.45 511.1 L268.5 511.05 269.6 509.15 269.65 509.05 269.85 508.2 270.0 507.85 270.05 507.8 270.2 507.4 270.2 507.35 271.1 505.4 Q272.05 503.4 270.45 503.15 L270.4 503.25 Q269.05 504.2 267.75 505.4 L267.7 505.4 Q262.75 508.5 258.25 512.6 L257.25 513.1 255.2 513.45 254.45 513.45 Q253.8 513.45 252.9 512.95 L252.5 512.85 251.0 511.85 250.9 511.8 250.35 511.5 Q250.15 507.8 249.55 504.25 L249.5 504.2 249.4 504.1 248.55 503.65 248.5 503.6 Q248.2 506.1 248.25 509.45 248.45 510.55 247.45 510.65 L247.4 510.75 246.7 511.9 246.65 512.05 246.15 512.9"/>
    </path>
    <path d="M246.15 512.9 L246.65 512.05 246.7 511.9 247.4 510.75 247.45 510.65 Q248.45 510.55 248.25 509.45 248.2 506.1 248.5 503.6 L248.55 503.65 249.4 504.1 249.5 504.2 249.55 504.25 Q250.15 507.8 250.35 511.5 L250.9 511.8 251.0 511.85 252.5 512.85 252.9 512.95 Q253.8 513.45 254.45 513.45 L255.2 513.45 257.25 513.1 258.25 512.6 Q262.75 508.5 267.7 505.4 L267.75 505.4 Q269.05 504.2 270.4 503.25 L270.45 503.15 Q272.05 503.4 271.1 505.4 L270.2 507.35 270.2 507.4 270.05 507.8 270.0 507.85 269.85 508.2 269.65 509.05 269.6 509.15 268.5 511.05 268.45 511.1 Q269.5 514.2 267.7 517.25 L267.6 517.2 266.45 514.0 266.4 514.0 Q261.8 520.0 254.95 517.5 L254.85 517.45 252.1 515.85 252.0 515.8 Q250.0 514.25 249.15 512.5 L249.05 512.4 Q248.0 511.75 246.15 512.9" fill="none" stroke="#000000" stroke-linecap="round" stroke-linejoin="round" stroke-opacity="0.0" stroke-width="1.0">
      <animate attributeName="stroke" dur="2s" repeatCount="indefinite" values="#000000;#000001"/>
      <animate attributeName="stroke-width" dur="2s" repeatCount="indefinite" values="0.0;0.0"/>
      <animate attributeName="fill-opacity" dur="2s" repeatCount="indefinite" values="0.0;0.0"/>
      <animate attributeName="d" dur="2s" repeatCount="indefinite" values="M246.15 512.9 L246.65 512.05 246.7 511.9 247.4 510.75 247.45 510.65 Q248.45 510.55 248.25 509.45 248.2 506.1 248.5 503.6 L248.55 503.65 249.4 504.1 249.5 504.2 249.55 504.25 Q250.15 507.8 250.35 511.5 L250.9 511.8 251.0 511.85 252.5 512.85 252.9 512.95 Q253.8 513.45 254.45 513.45 L255.2 513.45 257.25 513.1 258.25 512.6 Q262.75 508.5 267.7 505.4 L267.75 505.4 Q269.05 504.2 270.4 503.25 L270.45 503.15 Q272.05 503.4 271.1 505.4 L270.2 507.35 270.2 507.4 270.05 507.8 270.0 507.85 269.85 508.2 269.65 509.05 269.6 509.15 268.5 511.05 268.45 511.1 Q269.5 514.2 267.7 517.25 L267.6 517.2 266.45 514.0 266.4 514.0 Q261.8 520.0 254.95 517.5 L254.85 517.45 252.1 515.85 252.0 515.8 Q250.0 514.25 249.15 512.5 L249.05 512.4 Q248.0 511.75 246.15 512.9;M246.15 512.9 L246.65 512.05 246.7 511.9 247.4 510.75 247.45 510.65 Q248.45 510.55 248.25 509.45 248.2 506.1 248.5 503.6 L248.55 503.65 249.4 504.1 249.5 504.2 249.55 504.25 Q250.15 507.8 250.35 511.5 L250.9 511.8 251.0 511.85 252.5 512.85 252.9 512.95 Q253.8 513.45 254.45 513.45 L255.2 513.45 257.25 513.1 258.25 512.6 Q262.75 508.5 267.7 505.4 L267.75 505.4 Q269.05 504.2 270.4 503.25 L270.45 503.15 Q272.05 503.4 271.1 505.4 L270.2 507.35 270.2 507.4 270.05 507.8 270.0 507.85 269.85 508.2 269.65 509.05 269.6 509.15 268.5 511.05 268.45 511.1 Q269.5 514.2 267.7 517.25 L267.6 517.2 266.45 514.0 266.4 514.0 Q261.8 520.0 254.95 517.5 L254.85 517.45 252.1 515.85 252.0 515.8 Q250.0 514.25 249.15 512.5 L249.05 512.4 Q248.0 511.75 246.15 512.9"/>
    </path>
  </g>
</svg>
